# Blender v2.93.2 OBJ File: ''
# www.blender.org
mtllib dagger1.mtl
o Dagger_Cylinder
v 0.114102 -0.068741 -0.000000
v 0.131858 0.055861 0.000000
v 0.093238 0.055861 0.093238
v 0.080682 -0.068741 0.080682
v 0.000000 0.055861 0.131858
v 0.000000 -0.068741 0.114102
v -0.093238 0.055861 0.093238
v -0.080682 -0.068741 0.080682
v -0.131858 0.055861 0.000000
v -0.114102 -0.068741 -0.000000
v 0.066817 -0.475428 0.066817
v 0.000000 -0.475428 0.094494
v 0.000000 -0.496213 0.121530
v 0.085935 -0.496213 0.085935
v 0.210953 0.055861 0.000000
v 0.149166 0.055861 0.149166
v -0.149167 0.055861 0.149166
v -0.210953 0.055861 0.000000
v 0.000000 0.055861 0.210953
v 0.000000 0.170175 0.210953
v -0.149167 0.170175 0.149166
v 0.210953 0.170175 0.000000
v 0.149166 0.170175 0.149166
v -0.210953 0.170175 0.000000
v -0.066817 -0.475428 0.066817
v -0.085935 -0.496213 0.085935
v 0.094494 -0.475428 -0.000000
v 0.121530 -0.496213 -0.000000
v -0.094494 -0.475428 -0.000000
v -0.121530 -0.496213 -0.000000
v -0.105259 -0.519828 -0.000000
v -0.074429 -0.519828 0.074429
v 0.000000 -0.519828 0.105259
v 0.074429 -0.519828 0.074429
v 0.105259 -0.519828 -0.000000
v 0.000000 0.170175 0.050213
v -0.131858 0.170175 0.000000
v 0.000000 0.596914 0.046954
v -0.131858 0.596914 0.000000
v 0.131858 0.170175 0.000000
v 0.131858 0.596914 0.000000
v 0.096975 1.088686 0.000000
v 0.000000 1.088686 0.030107
v -0.096975 1.088686 0.000000
v 0.000000 1.616499 0.000000
v 0.000000 -0.519828 -0.000000
v 0.080682 -0.068741 -0.080682
v 0.093238 0.055861 -0.093238
v 0.000000 -0.068741 -0.114102
v 0.000000 0.055861 -0.131858
v -0.080682 -0.068741 -0.080682
v -0.093238 0.055861 -0.093238
v 0.066817 -0.475428 -0.066817
v 0.085935 -0.496213 -0.085935
v 0.000000 -0.496213 -0.121530
v 0.000000 -0.475428 -0.094494
v 0.149166 0.055861 -0.149166
v -0.149167 0.055861 -0.149166
v 0.000000 0.055861 -0.210953
v -0.149167 0.170175 -0.149166
v 0.000000 0.170175 -0.210953
v 0.149166 0.170175 -0.149166
v -0.085935 -0.496213 -0.085935
v -0.066817 -0.475428 -0.066817
v -0.074429 -0.519828 -0.074429
v 0.074429 -0.519828 -0.074429
v 0.000000 -0.519828 -0.105259
v 0.000000 0.170175 -0.050213
v 0.000000 0.596914 -0.046954
v 0.000000 1.088686 -0.030107
vt 0.306133 0.518560 0.0
vt 0.384961 0.403798 0.0
vt 0.306133 0.403798 0.0
vt 0.463813 0.518560 0.0
vt 0.463813 0.403798 0.0
vt 0.542665 0.403798 0.0
vt 0.621493 0.518560 0.0
vt 0.621493 0.403798 0.0
vt 0.374431 0.974390 0.0
vt 0.482105 0.928901 0.0
vt 0.374431 0.928901 0.0
vt 0.932953 0.768500 0.0
vt 0.982581 0.875716 0.0
vt 0.982581 0.768500 0.0
vt 0.932953 0.458370 0.0
vt 0.982581 0.565585 0.0
vt 0.982581 0.458370 0.0
vt 0.982581 0.667043 0.0
vt 0.932953 0.667043 0.0
vt 0.932953 0.565585 0.0
vt 0.797665 0.657882 0.0
vt 0.912885 0.527604 0.0
vt 0.797665 0.527604 0.0
vt 0.797665 0.925832 0.0
vt 0.912885 0.788161 0.0
vt 0.797665 0.788161 0.0
vt 0.912885 0.389932 0.0
vt 0.797665 0.389932 0.0
vt 0.912885 0.657882 0.0
vt 0.589778 0.974390 0.0
vt 0.482105 0.974390 0.0
vt 0.256274 0.928901 0.0
vt 0.256274 0.974390 0.0
vt 0.707936 0.928901 0.0
vt 0.589778 0.928901 0.0
vt 0.589778 0.885369 0.0
vt 0.374431 0.885369 0.0
vt 0.482105 0.885369 0.0
vt 0.256274 0.885369 0.0
vt 0.665897 0.637998 0.0
vt 0.645541 0.813431 0.0
vt 0.738564 0.813431 0.0
vt 0.035283 0.025754 0.0
vt 0.142089 0.308560 0.0
vt 0.035283 0.308560 0.0
vt 0.248895 0.025754 0.0
vt 0.142089 0.025754 0.0
vt 0.490464 0.565331 0.0
vt 0.490464 0.754377 0.0
vt 0.315031 0.637998 0.0
vt 0.335387 0.813431 0.0
vt 0.220640 0.634464 0.0
vt 0.142089 0.634464 0.0
vt 0.063538 0.634464 0.0
vt 0.142089 0.984254 0.0
vt 0.794102 0.312963 0.0
vt 0.794102 0.176902 0.0
vt 0.890311 0.273112 0.0
vt 0.658041 0.176902 0.0
vt 0.697892 0.273112 0.0
vt 0.621493 0.026282 0.0
vt 0.542665 0.026282 0.0
vt 0.463813 0.026282 0.0
vt 0.384961 0.026282 0.0
vt 0.306133 0.026282 0.0
vt 0.542665 0.403798 0.0
vt 0.621493 0.518560 0.0
vt 0.621493 0.403798 0.0
vt 0.463813 0.518560 0.0
vt 0.542665 0.518560 0.0
vt 0.384961 0.403798 0.0
vt 0.463813 0.403798 0.0
vt 0.306133 0.518560 0.0
vt 0.384961 0.518560 0.0
vt 0.589778 0.974390 0.0
vt 0.482105 0.928901 0.0
vt 0.482105 0.974390 0.0
vt 0.932953 0.565585 0.0
vt 0.982581 0.458370 0.0
vt 0.932953 0.458370 0.0
vt 0.932953 0.875716 0.0
vt 0.982581 0.768500 0.0
vt 0.932953 0.768500 0.0
vt 0.982581 0.667043 0.0
vt 0.932953 0.667043 0.0
vt 0.912885 0.788161 0.0
vt 0.797665 0.657882 0.0
vt 0.797665 0.788161 0.0
vt 0.912885 0.527604 0.0
vt 0.797665 0.389932 0.0
vt 0.797665 0.527604 0.0
vt 0.912885 0.925832 0.0
vt 0.797665 0.925832 0.0
vt 0.912885 0.657882 0.0
vt 0.374431 0.974390 0.0
vt 0.707936 0.928901 0.0
vt 0.707936 0.974390 0.0
vt 0.256274 0.928901 0.0
vt 0.256274 0.974390 0.0
vt 0.374431 0.885369 0.0
vt 0.374431 0.928901 0.0
vt 0.589778 0.885369 0.0
vt 0.589778 0.928901 0.0
vt 0.315031 0.637998 0.0
vt 0.335387 0.813431 0.0
vt 0.490464 0.754377 0.0
vt 0.142089 0.308560 0.0
vt 0.142089 0.025754 0.0
vt 0.490464 0.565331 0.0
vt 0.665897 0.637998 0.0
vt 0.645541 0.813431 0.0
vt 0.738564 0.813431 0.0
vt 0.248895 0.308560 0.0
vt 0.142089 0.634464 0.0
vt 0.930163 0.176902 0.0
vt 0.794102 0.040841 0.0
vt 0.697892 0.080692 0.0
vt 0.306133 0.026282 0.0
vt 0.384961 0.026282 0.0
vt 0.463813 0.026282 0.0
vt 0.542665 0.026282 0.0
vt 0.621493 0.026282 0.0
vt 0.384961 0.518560 0.0
vt 0.542665 0.518560 0.0
vt 0.932953 0.875716 0.0
vt 0.912885 0.925832 0.0
vt 0.707936 0.974390 0.0
vt 0.707936 0.885369 0.0
vt 0.242364 0.813431 0.0
vt 0.306133 0.403798 0.0
vt 0.982581 0.565585 0.0
vt 0.982581 0.875716 0.0
vt 0.912885 0.389932 0.0
vt 0.256274 0.885369 0.0
vt 0.482105 0.885369 0.0
vt 0.707936 0.885369 0.0
vt 0.242364 0.813431 0.0
vt 0.890311 0.080692 0.0
vn 0.9900 -0.1411 -0.0000
vn 0.7039 -0.0958 0.7039
vn 0.9954 -0.0958 0.0000
vn 0.0000 -0.1411 0.9900
vn -0.0000 -0.0958 0.9954
vn -0.7039 -0.0958 0.7039
vn -0.9900 -0.1411 -0.0000
vn -0.9954 -0.0958 0.0000
vn 0.4310 0.7928 0.4310
vn -0.0000 0.1346 0.9909
vn 0.7007 0.1346 0.7007
vn -0.0000 -1.0000 -0.0000
vn 0.0000 -0.0000 1.0000
vn -0.7071 -0.0000 0.7071
vn 1.0000 0.0000 0.0000
vn 0.7071 -0.0000 0.7071
vn -1.0000 0.0000 -0.0000
vn -0.4310 0.7928 0.4310
vn 0.0000 0.7928 0.6095
vn 0.9909 0.1346 -0.0000
vn 0.6095 0.7928 -0.0000
vn -0.9909 0.1346 -0.0000
vn -0.7007 0.1346 0.7007
vn -0.5823 -0.5674 0.5823
vn 0.5823 -0.5674 0.5823
vn 0.0000 -0.5674 0.8235
vn 0.8235 -0.5674 -0.0000
vn -0.0000 1.0000 0.0000
vn -0.3518 0.0057 0.9361
vn -0.3350 0.0131 0.9421
vn -0.3354 0.0116 0.9420
vn 0.3518 0.0057 0.9361
vn 0.3350 0.0131 0.9421
vn 0.3559 0.0071 0.9345
vn 0.2999 0.0419 0.9531
vn 0.2962 0.0435 0.9541
vn -0.2999 0.0419 0.9531
vn 0.2961 0.0544 0.9536
vn -0.2962 0.0435 0.9541
vn -0.2961 0.0544 0.9536
vn -0.9988 -0.0482 -0.0000
vn -0.7063 -0.0482 0.7063
vn -0.0000 -0.0482 0.9988
vn 0.7063 -0.0482 0.7063
vn 0.9988 -0.0482 -0.0000
vn 0.7039 -0.0958 -0.7039
vn 0.0000 -0.1411 -0.9900
vn 0.7000 -0.1411 -0.7000
vn -0.7039 -0.0958 -0.7039
vn -0.0000 -0.0958 -0.9954
vn -0.7000 -0.1411 -0.7000
vn 0.4310 0.7928 -0.4310
vn 0.0000 0.1346 -0.9909
vn 0.0000 0.7928 -0.6095
vn -0.7071 0.0000 -0.7071
vn 0.0000 0.0000 -1.0000
vn 0.7071 0.0000 -0.7071
vn -0.4310 0.7928 -0.4310
vn -0.6095 0.7928 -0.0000
vn -0.5823 -0.5674 -0.5823
vn -0.7007 0.1346 -0.7007
vn 0.5823 -0.5674 -0.5823
vn 0.7007 0.1346 -0.7007
vn -0.3518 0.0057 -0.9361
vn -0.3350 0.0131 -0.9421
vn -0.3559 0.0071 -0.9345
vn 0.3350 0.0131 -0.9421
vn 0.3518 0.0057 -0.9361
vn 0.3559 0.0071 -0.9345
vn 0.2999 0.0419 -0.9531
vn 0.3354 0.0116 -0.9420
vn -0.2999 0.0419 -0.9531
vn -0.3354 0.0116 -0.9420
vn 0.2962 0.0435 -0.9541
vn 0.2961 0.0544 -0.9536
vn -0.2961 0.0544 -0.9536
vn -0.2962 0.0435 -0.9541
vn -0.7063 -0.0482 -0.7063
vn -0.0000 -0.0482 -0.9988
vn 0.7063 -0.0482 -0.7063
vn 0.7000 -0.1411 0.7000
vn -0.7000 -0.1411 0.7000
vn -0.8235 -0.5674 -0.0000
vn -0.3559 0.0071 0.9345
vn 0.3354 0.0116 0.9420
vn 0.0000 -0.5674 -0.8235
usemtl Material.001
s 1
f 2/1/1 4/2/2 1/3/3
f 4/2/2 5/4/4 6/5/5
f 5/4/4 8/6/6 6/5/5
f 8/6/6 9/7/7 10/8/8
f 11/9/9 13/10/10 14/11/11
f 3/12/12 15/13/12 16/14/12
f 9/15/12 17/16/12 18/17/12
f 3/12/12 19/18/12 5/19/12
f 7/20/12 19/18/12 17/16/12
f 19/21/13 21/22/14 17/23/14
f 15/24/15 23/25/16 16/26/16
f 17/23/14 24/27/17 18/28/17
f 16/26/16 20/29/13 19/21/13
f 25/30/18 13/10/10 12/31/19
f 11/9/9 28/32/20 27/33/21
f 25/30/18 30/34/22 26/35/23
f 30/34/22 32/36/24 26/35/23
f 13/10/10 34/37/25 14/11/11
f 13/10/10 32/36/24 33/38/26
f 28/32/20 34/37/25 35/39/27
f 21/40/28 37/41/28 24/42/28
f 37/43/29 38/44/30 39/45/31
f 40/46/32 38/44/33 36/47/34
f 20/48/28 36/49/28 21/40/28
f 23/50/28 40/51/28 36/49/28
f 38/44/33 42/52/35 43/53/36
f 38/44/30 44/54/37 39/45/31
f 43/53/36 42/52/35 45/55/38
f 44/54/37 43/53/39 45/55/40
f 34/56/12 46/57/12 35/58/12
f 32/59/12 46/57/12 33/60/12
f 8/6/6 29/61/41 25/62/42
f 6/5/5 25/62/42 12/63/43
f 4/2/2 12/63/43 11/64/44
f 1/3/3 11/64/44 27/65/45
f 47/66/46 2/67/1 1/68/3
f 47/66/46 50/69/47 48/70/48
f 51/71/49 50/69/47 49/72/50
f 51/71/49 9/73/7 52/74/51
f 53/75/52 55/76/53 56/77/54
f 48/78/12 15/79/12 2/80/12
f 9/81/12 58/82/12 52/83/12
f 59/84/12 48/78/12 50/85/12
f 52/83/12 59/84/12 50/85/12
f 60/86/55 59/87/56 58/88/55
f 62/89/57 15/90/15 57/91/57
f 24/92/17 58/88/55 18/93/17
f 61/94/56 57/91/57 59/87/56
f 55/76/53 64/95/58 56/77/54
f 28/96/20 53/75/52 27/97/21
f 64/95/58 30/98/22 29/99/59
f 65/100/60 30/98/22 63/101/61
f 66/102/62 55/76/53 54/103/63
f 55/76/53 65/100/60 63/101/61
f 28/96/20 66/102/62 54/103/63
f 60/104/28 37/105/28 68/106/28
f 37/43/64 69/107/65 68/108/66
f 69/107/67 40/46/68 68/108/69
f 61/109/28 68/106/28 62/110/28
f 62/110/28 40/111/28 22/112/28
f 69/107/67 42/52/70 41/113/71
f 44/54/72 69/107/65 39/45/73
f 70/114/74 45/55/75 42/52/70
f 44/54/72 45/55/76 70/114/77
f 46/57/12 66/115/12 35/58/12
f 65/116/12 46/57/12 31/117/12
f 29/118/41 51/71/49 64/119/78
f 64/119/78 49/72/50 56/120/79
f 56/120/79 47/66/46 53/121/80
f 53/121/80 1/68/3 27/122/45
f 2/1/1 3/123/81 4/2/2
f 4/2/2 3/123/81 5/4/4
f 5/4/4 7/124/82 8/6/6
f 8/6/6 7/124/82 9/7/7
f 11/9/9 12/31/19 13/10/10
f 3/12/12 2/125/12 15/13/12
f 9/15/12 7/20/12 17/16/12
f 3/12/12 16/14/12 19/18/12
f 7/20/12 5/19/12 19/18/12
f 19/21/13 20/29/13 21/22/14
f 15/24/15 22/126/15 23/25/16
f 17/23/14 21/22/14 24/27/17
f 16/26/16 23/25/16 20/29/13
f 25/30/18 26/35/23 13/10/10
f 11/9/9 14/11/11 28/32/20
f 25/30/18 29/127/59 30/34/22
f 30/34/22 31/128/83 32/36/24
f 13/10/10 33/38/26 34/37/25
f 13/10/10 26/35/23 32/36/24
f 28/32/20 14/11/11 34/37/25
f 21/40/28 36/49/28 37/41/28
f 37/43/29 36/47/84 38/44/30
f 40/46/32 41/113/85 38/44/33
f 20/48/28 23/50/28 36/49/28
f 23/50/28 22/129/28 40/51/28
f 38/44/33 41/113/85 42/52/35
f 38/44/30 43/53/39 44/54/37
f 34/56/12 33/60/12 46/57/12
f 32/59/12 31/117/12 46/57/12
f 8/6/6 10/8/8 29/61/41
f 6/5/5 8/6/6 25/62/42
f 4/2/2 6/5/5 12/63/43
f 1/3/3 4/2/2 11/64/44
f 47/66/46 48/70/48 2/67/1
f 47/66/46 49/72/50 50/69/47
f 51/71/49 52/74/51 50/69/47
f 51/71/49 10/130/8 9/73/7
f 53/75/52 54/103/63 55/76/53
f 48/78/12 57/131/12 15/79/12
f 9/81/12 18/132/12 58/82/12
f 59/84/12 57/131/12 48/78/12
f 52/83/12 58/82/12 59/84/12
f 60/86/55 61/94/56 59/87/56
f 62/89/57 22/133/15 15/90/15
f 24/92/17 60/86/55 58/88/55
f 61/94/56 62/89/57 57/91/57
f 55/76/53 63/101/61 64/95/58
f 28/96/20 54/103/63 53/75/52
f 64/95/58 63/101/61 30/98/22
f 65/100/60 31/134/83 30/98/22
f 66/102/62 67/135/86 55/76/53
f 55/76/53 67/135/86 65/100/60
f 28/96/20 35/136/27 66/102/62
f 60/104/28 24/137/28 37/105/28
f 37/43/64 39/45/73 69/107/65
f 69/107/67 41/113/71 40/46/68
f 61/109/28 60/104/28 68/106/28
f 62/110/28 68/106/28 40/111/28
f 69/107/67 70/114/74 42/52/70
f 44/54/72 70/114/77 69/107/65
f 46/57/12 67/138/12 66/115/12
f 65/116/12 67/138/12 46/57/12
f 29/118/41 10/130/8 51/71/49
f 64/119/78 51/71/49 49/72/50
f 56/120/79 49/72/50 47/66/46
f 53/121/80 47/66/46 1/68/3
